<?xml version="1.0" standalone="no"?>
<!DOCTYPE svg PUBLIC "-//W3C//DTD SVG 20010904//EN"
 "http://www.w3.org/TR/2001/REC-SVG-20010904/DTD/svg10.dtd">
<svg version="1.0" xmlns="http://www.w3.org/2000/svg"
 width="366.000000pt" height="366.000000pt" viewBox="0 0 366.000000 366.000000"
 preserveAspectRatio="xMidYMid meet">

<g transform="translate(0.000000,366.000000) scale(0.100000,-0.100000)"
fill="#000000" stroke="none">
<path d="M417 3556 c-102 -28 -157 -108 -157 -232 0 -70 -2 -78 -25 -96 -14
-11 -35 -38 -46 -61 l-21 -41 4 -1355 c4 -1288 5 -1358 22 -1394 10 -20 31
-48 46 -61 18 -15 30 -37 35 -65 9 -54 58 -118 114 -148 43 -23 49 -23 348
-23 317 0 347 4 394 46 16 14 21 13 60 -13 l43 -28 320 1 c177 0 335 1 351 2
17 0 296 -2 620 -4 660 -5 638 -7 709 65 20 21 43 56 51 77 9 27 23 44 44 54
18 9 46 29 63 45 65 62 61 -34 66 1444 3 986 1 1353 -7 1381 -14 48 -69 97
-126 112 -40 11 -49 19 -82 76 -69 119 -194 203 -328 222 -92 13 -830 13 -920
0 -41 -6 -98 -24 -140 -45 l-70 -34 -70 35 c-43 21 -97 38 -140 44 -109 15
-1099 12 -1158 -4z m1149 -231 c63 -19 126 -72 156 -133 l23 -47 3 -602 3
-602 -181 -91 c-99 -49 -180 -94 -180 -99 0 -5 9 -37 19 -72 21 -68 67 -225
187 -644 41 -143 90 -312 109 -375 18 -63 48 -164 65 -223 17 -60 34 -115 37
-123 4 -12 -30 -14 -248 -12 l-254 3 -7 45 c-4 25 -19 113 -32 195 -19 116
-124 739 -163 963 l-6 33 -53 -52 -54 -53 0 -568 0 -568 -250 0 -250 0 0 738
c0 406 -3 1090 -7 1520 l-6 782 520 0 c429 0 528 -3 569 -15z m1333 -1 c61
-18 123 -69 154 -128 21 -40 22 -54 25 -393 l3 -352 -250 -126 c-138 -69 -253
-125 -256 -125 -3 0 -5 142 -5 315 l0 315 -125 0 -125 0 0 -1015 0 -1015 125
0 125 0 0 375 c0 206 -3 375 -7 375 -4 0 -47 -39 -95 -87 l-88 -88 0 251 0
250 143 90 c78 50 233 148 345 219 111 70 205 125 208 122 4 -3 3 -456 -1
-1007 l-7 -1000 -523 0 c-369 0 -532 3 -556 12 -58 19 -115 67 -145 121 l-29
52 -3 1309 c-3 1487 -8 1381 77 1466 78 78 82 78 552 79 339 1 414 -2 458 -15z"/>
<path d="M987 2823 c-3 -5 -2 -203 1 -441 l5 -434 123 123 124 124 0 317 0
318 -124 0 c-69 0 -127 -3 -129 -7z"/>
</g>
</svg>
