<svg id="svg" version="1.1" xmlns="http://www.w3.org/2000/svg" xmlns:xlink="http://www.w3.org/1999/xlink" width="400" height="225" viewBox="0, 0, 400,225"><g id="svgg"><path id="path0" d="M82.911 77.890 C 75.728 80.241,78.391 90.221,85.917 89.155 C 91.724 88.332,92.826 80.704,87.500 78.203 C 86.398 77.686,84.030 77.524,82.911 77.890 M308.048 77.908 C 302.090 79.770,302.629 88.147,308.773 89.175 C 316.310 90.435,319.015 80.175,311.750 77.882 C 310.895 77.612,308.951 77.626,308.048 77.908 M197.227 81.083 C 197.193 81.175,197.184 93.438,197.207 108.333 L 197.250 135.417 202.022 135.461 L 206.794 135.505 206.864 135.128 C 206.966 134.575,206.932 81.210,206.829 81.107 C 206.657 80.935,197.292 80.912,197.227 81.083 M238.167 83.579 C 234.580 84.013,232.452 84.621,229.351 86.098 C 222.743 89.247,217.435 95.960,215.987 102.999 C 214.959 107.998,215.174 114.517,216.488 118.167 C 217.872 122.009,219.519 125.016,221.287 126.931 C 221.634 127.306,222.109 127.831,222.344 128.098 C 230.859 137.771,248.561 138.440,258.822 129.477 C 264.335 124.662,266.712 119.162,266.630 111.417 L 266.583 107.083 253.011 107.046 C 243.383 107.020,239.375 107.063,239.220 107.192 C 238.972 107.397,238.896 113.911,239.136 114.290 C 239.238 114.450,241.270 114.507,248.009 114.540 L 256.750 114.583 256.802 115.039 C 256.879 115.700,255.928 118.353,255.027 119.994 C 251.047 127.245,240.110 129.299,232.281 124.266 C 225.580 119.958,223.297 108.811,227.439 100.622 C 232.257 91.095,246.258 89.445,252.814 97.630 L 254.045 99.167 259.606 99.167 C 264.117 99.167,265.167 99.125,265.167 98.945 C 265.167 98.283,263.813 95.477,262.588 93.599 C 257.874 86.373,248.128 82.374,238.167 83.579 M32.292 84.097 C 32.144 84.245,32.120 134.851,32.268 135.236 C 32.357 135.468,32.947 135.500,37.184 135.500 L 42.000 135.500 42.000 125.656 C 42.000 119.189,42.059 115.701,42.173 115.489 C 42.331 115.193,42.544 115.167,44.813 115.167 C 47.736 115.167,47.319 114.882,49.076 118.083 C 49.781 119.367,50.659 120.942,51.029 121.583 C 51.735 122.808,55.437 129.340,57.357 132.750 C 57.976 133.850,58.603 134.919,58.749 135.125 L 59.016 135.500 64.591 135.500 C 68.286 135.500,70.167 135.442,70.167 135.329 C 70.167 135.235,69.878 134.692,69.526 134.121 C 68.881 133.076,67.674 131.043,64.508 125.667 C 63.564 124.063,61.836 121.138,60.668 119.167 C 58.034 114.720,58.120 114.887,58.299 114.567 C 58.380 114.423,58.986 114.123,59.647 113.901 C 65.039 112.085,68.281 108.376,69.650 102.456 C 71.264 95.473,66.607 87.550,59.583 85.331 C 59.217 85.215,58.767 85.061,58.583 84.989 C 58.400 84.916,57.875 84.777,57.417 84.679 C 56.958 84.582,56.208 84.417,55.750 84.314 C 54.790 84.097,32.497 83.891,32.292 84.097 M54.331 92.511 C 58.035 93.633,59.669 95.909,59.665 99.942 C 59.660 104.603,57.583 106.983,52.840 107.761 C 50.685 108.114,42.621 108.097,42.262 107.738 C 41.899 107.375,41.861 92.656,42.222 92.357 C 42.724 91.940,52.873 92.069,54.331 92.511 M112.500 94.488 C 103.640 96.416,97.826 104.517,97.835 114.925 C 97.843 125.301,103.389 133.341,112.083 135.580 C 112.867 135.782,113.275 135.849,115.197 136.092 C 119.497 136.636,125.066 134.506,128.445 131.024 C 130.453 128.955,130.394 128.849,130.289 134.294 C 130.171 140.404,129.710 141.997,127.392 144.292 C 122.578 149.061,112.628 147.735,109.883 141.958 L 109.428 141.000 104.547 141.000 C 99.080 141.000,99.517 140.879,99.849 142.301 C 101.128 147.789,104.824 152.040,109.960 153.930 C 110.578 154.157,111.233 154.411,111.417 154.494 C 114.674 155.971,122.991 156.099,127.359 154.738 C 134.022 152.663,137.691 148.507,139.855 140.583 C 140.063 139.825,140.392 95.590,140.194 95.000 C 140.159 94.894,138.350 94.833,135.236 94.833 L 130.333 94.833 130.333 97.505 C 130.333 100.828,130.301 100.859,128.622 99.130 C 124.576 94.964,118.437 93.196,112.500 94.488 M165.417 94.276 C 165.233 94.315,164.483 94.460,163.750 94.599 C 159.869 95.333,156.125 97.411,153.571 100.249 C 152.620 101.305,151.500 102.735,151.500 102.892 C 151.500 102.926,151.205 103.491,150.844 104.148 C 147.569 110.105,147.499 119.170,150.677 125.530 C 157.272 138.723,177.392 139.907,185.436 127.574 C 186.329 126.205,187.688 123.351,187.554 123.125 C 187.514 123.056,185.135 123.000,182.268 123.000 L 177.056 123.000 176.502 123.855 C 172.982 129.287,164.424 129.387,160.296 124.045 C 159.161 122.576,157.951 118.512,158.538 118.140 C 158.655 118.066,165.435 118.004,173.606 118.003 L 188.461 118.000 188.562 117.625 C 188.729 117.002,188.679 111.465,188.497 110.406 C 186.982 101.595,181.610 96.193,172.529 94.347 C 171.694 94.177,166.142 94.122,165.417 94.276 M294.583 94.415 C 291.289 95.101,288.225 96.998,286.254 99.572 C 284.817 101.447,284.760 101.380,284.704 97.790 L 284.659 94.833 279.745 94.833 L 274.832 94.833 274.874 115.125 L 274.917 135.417 279.750 135.417 L 284.583 135.417 284.675 123.750 C 284.758 113.140,284.793 111.985,285.070 111.001 C 286.355 106.422,289.454 104.500,295.555 104.500 L 297.333 104.500 297.333 99.333 L 297.333 94.167 296.458 94.187 C 295.977 94.197,295.133 94.300,294.583 94.415 M345.211 94.415 C 341.987 95.000,338.761 96.702,336.691 98.910 C 335.647 100.024,335.521 99.839,335.463 97.109 L 335.417 94.917 330.541 94.872 L 325.665 94.828 325.708 115.122 L 325.750 135.417 330.538 135.461 L 335.326 135.505 335.412 135.128 C 335.460 134.920,335.522 129.200,335.551 122.417 C 335.608 108.770,335.571 109.260,336.715 107.106 C 340.116 100.700,350.661 100.965,353.498 107.527 C 354.427 109.678,354.391 109.118,354.491 122.750 L 354.583 135.417 359.417 135.417 L 364.250 135.417 364.250 121.833 C 364.250 106.027,364.254 106.066,362.398 102.250 C 359.534 96.361,352.404 93.111,345.211 94.415 M79.874 115.125 L 79.917 135.417 84.750 135.417 L 89.583 135.417 89.626 115.125 L 89.668 94.833 84.750 94.833 L 79.832 94.833 79.874 115.125 M305.041 115.122 L 305.083 135.417 309.871 135.461 L 314.659 135.505 314.746 135.128 C 314.794 134.920,314.815 125.787,314.792 114.833 L 314.750 94.917 309.874 94.872 L 304.999 94.828 305.041 115.122 M170.083 102.243 C 172.862 102.683,174.558 103.510,176.223 105.237 C 177.812 106.886,179.063 110.537,178.300 111.300 C 178.088 111.512,159.306 111.607,158.764 111.399 C 158.396 111.258,158.428 110.442,158.850 109.153 C 160.515 104.063,164.826 101.412,170.083 102.243 M121.197 102.917 C 128.518 104.418,132.308 112.490,129.391 120.367 C 125.876 129.856,112.221 129.652,108.806 120.059 C 105.395 110.477,112.195 101.071,121.197 102.917 M163.288 118.787 C 163.584 118.824,164.109 118.824,164.455 118.788 C 164.800 118.752,164.558 118.722,163.917 118.721 C 163.275 118.721,162.992 118.750,163.288 118.787 M165.708 118.788 C 166.052 118.824,166.615 118.824,166.958 118.788 C 167.302 118.752,167.021 118.723,166.333 118.723 C 165.646 118.723,165.365 118.752,165.708 118.788 M168.208 118.788 C 168.552 118.824,169.115 118.824,169.458 118.788 C 169.802 118.752,169.521 118.723,168.833 118.723 C 168.146 118.723,167.865 118.752,168.208 118.788 M170.708 118.788 C 171.052 118.824,171.615 118.824,171.958 118.788 C 172.302 118.752,172.021 118.723,171.333 118.723 C 170.646 118.723,170.365 118.752,170.708 118.788 M173.208 118.788 C 173.552 118.824,174.115 118.824,174.458 118.788 C 174.802 118.752,174.521 118.723,173.833 118.723 C 173.146 118.723,172.865 118.752,173.208 118.788 M175.708 118.788 C 176.052 118.824,176.615 118.824,176.958 118.788 C 177.302 118.752,177.021 118.723,176.333 118.723 C 175.646 118.723,175.365 118.752,175.708 118.788 M178.208 118.788 C 178.552 118.824,179.115 118.824,179.458 118.788 C 179.802 118.752,179.521 118.723,178.833 118.723 C 178.146 118.723,177.865 118.752,178.208 118.788 M180.708 118.788 C 181.052 118.824,181.615 118.824,181.958 118.788 C 182.302 118.752,182.021 118.723,181.333 118.723 C 180.646 118.723,180.365 118.752,180.708 118.788 M183.208 118.788 C 183.552 118.824,184.115 118.824,184.458 118.788 C 184.802 118.752,184.521 118.723,183.833 118.723 C 183.146 118.723,182.865 118.752,183.208 118.788 M185.708 118.788 C 186.052 118.824,186.615 118.824,186.958 118.788 C 187.302 118.752,187.021 118.723,186.333 118.723 C 185.646 118.723,185.365 118.752,185.708 118.788 " stroke="none" fill="#ababab" fill-rule="evenodd"></path></g></svg>